<svg xmlns="http://www.w3.org/2000/svg" width="24.658" height="21.2" viewBox="0 0 24.658 21.2"><defs><style>.a{fill:#fff;}</style></defs><g transform="translate(-0.001 -35.905)"><g transform="translate(4.044 45.084)"><g transform="translate(0 0)"><path class="a" d="M98.136,229.6a7.165,7.165,0,0,0-11.81,0,9.957,9.957,0,0,0-2.381,6.07,2.711,2.711,0,0,0,.883,2.2,3.326,3.326,0,0,0,2.193.645,16.823,16.823,0,0,0,2.9-.366,14.281,14.281,0,0,1,2.309-.308,13.443,13.443,0,0,1,2.118.292c1.894.352,4.04.75,5.28-.281a2.687,2.687,0,0,0,.888-2.182A9.957,9.957,0,0,0,98.136,229.6Zm.57,7.141c-.719.6-2.589.25-4.092-.029a14.228,14.228,0,0,0-2.382-.317,15.153,15.153,0,0,0-2.57.332c-1.441.264-3.235.594-3.909.032-.09-.075-.363-.3-.363-1.09a8.6,8.6,0,0,1,2.049-5.148,5.737,5.737,0,0,1,9.584,0,8.6,8.6,0,0,1,2.049,5.148C99.073,236.438,98.8,236.668,98.706,236.743Z" transform="translate(-83.945 -226.496)"/></g></g><g transform="translate(12.77 35.905)"><g transform="translate(0 0)"><path class="a" d="M270.775,37.315a2.723,2.723,0,0,0-4.77,0,5.777,5.777,0,0,0,0,6.08,2.723,2.723,0,0,0,4.77,0,5.776,5.776,0,0,0,0-6.08Zm-1.2,5.269a1.3,1.3,0,0,1-2.378,0,4.343,4.343,0,0,1,0-4.458,1.3,1.3,0,0,1,2.378,0,4.344,4.344,0,0,1,0,4.458Z" transform="translate(-265.141 -35.907)"/></g></g><g transform="translate(5.391 35.905)"><path class="a" d="M117.55,37.313a2.723,2.723,0,0,0-4.77,0,5.776,5.776,0,0,0,0,6.08,2.723,2.723,0,0,0,4.77,0,5.776,5.776,0,0,0,0-6.08Zm-1.2,5.269a1.3,1.3,0,0,1-2.378,0,4.344,4.344,0,0,1,0-4.458,1.3,1.3,0,0,1,2.378,0,4.344,4.344,0,0,1,0,4.458Z" transform="translate(-111.916 -35.905)"/></g><g transform="translate(19.137 42.455)"><path class="a" d="M402.728,173.753a2.481,2.481,0,0,0-1.477-1.7,2.321,2.321,0,0,0-1.81.1,3.725,3.725,0,0,0-1.847,2.184,4.027,4.027,0,0,0-.1,2.438,2.481,2.481,0,0,0,1.477,1.7,2.173,2.173,0,0,0,.766.138,2.465,2.465,0,0,0,1.044-.24,3.725,3.725,0,0,0,1.847-2.184h0A4.027,4.027,0,0,0,402.728,173.753Zm-1.464,1.962a2.317,2.317,0,0,1-1.1,1.352.9.9,0,0,1-.69.058c-.626-.235-.869-1.315-.521-2.312a2.317,2.317,0,0,1,1.1-1.352,1.035,1.035,0,0,1,.431-.1.731.731,0,0,1,.259.046C401.368,173.637,401.612,174.718,401.263,175.714Z" transform="translate(-397.35 -171.912)"/></g><g transform="translate(0.001 42.455)"><g transform="translate(0)"><path class="a" d="M5.278,174.335a3.725,3.725,0,0,0-1.847-2.184,2.321,2.321,0,0,0-1.81-.1,2.481,2.481,0,0,0-1.477,1.7,4.027,4.027,0,0,0,.1,2.438h0a3.725,3.725,0,0,0,1.847,2.184,2.465,2.465,0,0,0,1.044.24,2.174,2.174,0,0,0,.766-.138,2.481,2.481,0,0,0,1.477-1.7A4.028,4.028,0,0,0,5.278,174.335Zm-1.885,2.789a.9.9,0,0,1-.69-.058,2.316,2.316,0,0,1-1.1-1.352h0c-.348-1-.1-2.077.521-2.312a.9.9,0,0,1,.69.058,2.317,2.317,0,0,1,1.1,1.352C4.263,175.808,4.019,176.889,3.394,177.124Z" transform="translate(-0.001 -171.912)"/></g></g></g></svg>