<svg xmlns="http://www.w3.org/2000/svg" width="31.875" height="17" viewBox="0 0 31.875 17"><defs><style>.a{fill:#fff;}</style></defs><g transform="translate(0 -112)"><g transform="translate(0 112)"><path class="a" d="M29.042,115.542a2.8,2.8,0,0,0-1.417.4v-.4c0-2.352-1.19-3.542-3.542-3.542H7.792c-2.352,0-3.542,1.19-3.542,3.542v.4a2.867,2.867,0,0,0-1.417-.4A2.833,2.833,0,0,0,0,118.375v5.667a2.833,2.833,0,0,0,2.833,2.833H4.25v1.417a.708.708,0,0,0,1.417,0v-1.417H26.209v1.417a.708.708,0,1,0,1.417,0v-1.417h1.41a2.839,2.839,0,0,0,2.84-2.833v-5.667A2.833,2.833,0,0,0,29.042,115.542Zm-23.375,0c0-1.565.553-2.125,2.125-2.125H24.083c1.565,0,2.125.56,2.125,2.125V120.5H5.667Zm24.792,8.5a1.422,1.422,0,0,1-1.424,1.417H2.833a1.421,1.421,0,0,1-1.417-1.417v-5.667a1.417,1.417,0,1,1,2.833,0v3.542H27.625v-3.542a1.417,1.417,0,1,1,2.833,0v5.667Z" transform="translate(0 -112)"/></g></g></svg>