<svg xmlns="http://www.w3.org/2000/svg" width="21.094" height="24" viewBox="0 0 21.094 24"><defs><style>.a{fill:#fff;}</style></defs><path class="a" d="M49.984,2.812h-.7v-.7A2.112,2.112,0,0,0,47.172,0H33.109A2.112,2.112,0,0,0,31,2.109V7.734a2.112,2.112,0,0,0,2.109,2.109h.729q-.026.349-.026.7c0,.271.012.543.035.812a2.109,2.109,0,0,0-.007,4,6.5,6.5,0,0,0,3.144,4.985,3.518,3.518,0,0,0-.359,1.548v.7H34.516a.7.7,0,1,0,0,1.406h11.25a.7.7,0,1,0,0-1.406H43.656v-.7a3.518,3.518,0,0,0-.359-1.548,6.5,6.5,0,0,0,3.144-4.985,2.109,2.109,0,0,0-.007-4c.023-.269.035-.541.035-.812q0-.354-.026-.7h.729a2.112,2.112,0,0,0,2.109-2.109V4.219h.7a.7.7,0,0,1,.7.7V6.328a.7.7,0,1,0,1.406,0V4.922A2.112,2.112,0,0,0,49.984,2.812Zm-7.973,16.6a.7.7,0,0,0-.267,1.107,2.109,2.109,0,0,1,.505,1.37v.7H38.031v-.7a2.109,2.109,0,0,1,.505-1.37.7.7,0,0,0-.267-1.107,5.03,5.03,0,0,1-3-3.949h9.745A5.03,5.03,0,0,1,42.012,19.413Zm4.457-6.054a.7.7,0,0,1-.7.7H34.516a.705.705,0,0,1,0-1.411h11.25A.708.708,0,0,1,46.469,13.359Zm-11.25-2.812c0-3.489,2.208-6.328,4.922-6.328s4.922,2.839,4.922,6.328c0,.235-.011.47-.031.7H35.249C35.229,11.017,35.219,10.782,35.219,10.547ZM47.875,7.734a.7.7,0,0,1-.7.7h-.94c-.7-3.065-3.036-5.625-6.091-5.625s-5.39,2.575-6.091,5.625h-.94a.7.7,0,0,1-.7-.7V2.109a.7.7,0,0,1,.7-.7H47.172a.7.7,0,0,1,.7.7Z" transform="translate(-31)"/></svg>