<svg xmlns="http://www.w3.org/2000/svg" width="76.17" height="25.367" viewBox="0 0 76.17 25.367"><defs><style>.a{fill:#ff7058;}.b{fill:#f1543f;}.c{fill:#ffd15c;}.d{fill:#f8b64c;}.e{fill:#f7ac41;}.f{fill:#fff;}.g{fill:#6004ff;}.h{fill:#fd3c65;}.i{fill:#fd003a;}.j{fill:#fedb41;}.k{fill:#fcbf29;}.l{fill:#fea832;}.m{fill:#fe9923;}</style></defs><g transform="translate(-137.663 -2048)"><g transform="translate(161.535 2048)"><g transform="translate(9.925 11.588)"><path class="a" d="M240.243,243.741l-4.593.317-2.64,3.854-5.543-9.555,7.285-4.223Z" transform="translate(-227.467 -234.133)"/><path class="a" d="M234.752,235.2l5.49,9.555-2.851.211-1.742.106-1,1.425-1.637,2.428-5.543-9.555Z" transform="translate(-227.467 -235.147)"/></g><path class="b" d="M276.078,260.8l4.91,8.5-1.742.106-1,1.425-4.91-8.447Z" transform="translate(-261.138 -247.892)"/><g transform="translate(0 11.588)"><path class="a" d="M26.933,243.741l4.593.317,2.64,3.854,5.543-9.555-7.285-4.223Z" transform="translate(-26.933 -234.133)"/><path class="a" d="M32.423,235.2l-5.49,9.555,2.851.211,1.742.106,1,1.425,1.637,2.428,5.543-9.555Z" transform="translate(-26.933 -235.147)"/></g><path class="b" d="M89.443,260.8l-4.91,8.5,1.742.106,1,1.425,4.91-8.447Z" transform="translate(-81.682 -247.892)"/><path class="c" d="M62.541,13.066h0a3.505,3.505,0,0,0,0-4.963h0a3.436,3.436,0,0,1-1.056-2.481h0a3.537,3.537,0,0,0-3.537-3.537h0A3.35,3.35,0,0,1,55.466,1.03h0a3.5,3.5,0,0,0-4.963,0h0a3.436,3.436,0,0,1-2.481,1.056h0a3.537,3.537,0,0,0-3.537,3.537h0A3.35,3.35,0,0,1,43.43,8.1h0a3.505,3.505,0,0,0,0,4.963h0a3.436,3.436,0,0,1,1.056,2.481h0a3.537,3.537,0,0,0,3.537,3.537h0A3.35,3.35,0,0,1,50.5,20.141h0a3.5,3.5,0,0,0,4.963,0h0a3.436,3.436,0,0,1,2.481-1.056h0a3.537,3.537,0,0,0,3.537-3.537h0A3.526,3.526,0,0,1,62.541,13.066Z" transform="translate(-41.635 0)"/><path class="d" d="M94.553,60.094a1.442,1.442,0,0,1-1-.422,5.594,5.594,0,0,0-3.959-1.637,1.419,1.419,0,0,1-1.425-1.425,5.594,5.594,0,0,0-1.637-3.959,1.468,1.468,0,0,1,0-2.006,5.594,5.594,0,0,0,1.637-3.959,1.419,1.419,0,0,1,1.425-1.425,5.5,5.5,0,0,0,3.959-1.637,1.4,1.4,0,0,1,2.006,0,5.594,5.594,0,0,0,3.959,1.637,1.419,1.419,0,0,1,1.425,1.425,5.5,5.5,0,0,0,1.637,3.959,1.468,1.468,0,0,1,0,2.006,5.594,5.594,0,0,0-1.637,3.959,1.419,1.419,0,0,1-1.425,1.425,5.5,5.5,0,0,0-3.959,1.637A1.443,1.443,0,0,1,94.553,60.094Z" transform="translate(-83.203 -41.062)"/><path class="e" d="M86.41,51.172a5.594,5.594,0,0,0,1.637-3.959,1.419,1.419,0,0,1,1.425-1.425,5.5,5.5,0,0,0,3.959-1.637,1.4,1.4,0,0,1,2.006,0A5.594,5.594,0,0,0,99.4,45.787a1.419,1.419,0,0,1,1.425,1.425,5.5,5.5,0,0,0,1.637,3.959,1.408,1.408,0,0,1,.37.739,1.459,1.459,0,0,0-.37-1.267,5.594,5.594,0,0,1-1.637-3.959A1.419,1.419,0,0,0,99.4,45.259a5.594,5.594,0,0,1-3.959-1.637,1.4,1.4,0,0,0-2.006,0,5.594,5.594,0,0,1-3.959,1.637,1.419,1.419,0,0,0-1.425,1.425,5.594,5.594,0,0,1-1.637,3.959,1.375,1.375,0,0,0-.37,1.267A1.109,1.109,0,0,1,86.41,51.172Z" transform="translate(-83.084 -41.062)"/><path class="c" d="M143.808,91.358l1.214,3.7c.053.106.106.158.211.158h3.907c.211,0,.317.317.158.422l-3.168,2.27c-.106.053-.106.158-.106.264l1.214,3.7a.237.237,0,0,1-.37.264l-3.168-2.27a.236.236,0,0,0-.264,0l-3.168,2.27a.237.237,0,0,1-.37-.264l1.214-3.7a.193.193,0,0,0-.106-.264l-3.168-2.27c-.211-.158-.106-.422.158-.422h3.907c.106,0,.211-.053.211-.158l1.214-3.7C143.439,91.147,143.755,91.147,143.808,91.358Z" transform="translate(-132.247 -86.686)"/></g><g transform="translate(191.132 2048)"><g transform="translate(9.925 11.588)"><path class="a" d="M240.243,243.741l-4.593.317-2.64,3.854-5.543-9.555,7.285-4.223Z" transform="translate(-227.467 -234.133)"/><path class="a" d="M234.752,235.2l5.49,9.555-2.851.211-1.742.106-1,1.425-1.637,2.428-5.543-9.555Z" transform="translate(-227.467 -235.147)"/></g><path class="f" d="M276.078,260.8l4.91,8.5-1.742.106-1,1.425-4.91-8.447Z" transform="translate(-261.138 -247.892)"/><g transform="translate(0 11.588)"><path class="a" d="M26.933,243.741l4.593.317,2.64,3.854,5.543-9.555-7.285-4.223Z" transform="translate(-26.933 -234.133)"/><path class="g" d="M32.423,235.2l-5.49,9.555,2.851.211,1.742.106,1,1.425,1.637,2.428,5.543-9.555Z" transform="translate(-26.933 -235.147)"/></g><path class="f" d="M89.443,260.8l-4.91,8.5,1.742.106,1,1.425,4.91-8.447Z" transform="translate(-81.682 -247.892)"/><path class="c" d="M62.541,13.066h0a3.505,3.505,0,0,0,0-4.963h0a3.436,3.436,0,0,1-1.056-2.481h0a3.537,3.537,0,0,0-3.537-3.537h0A3.35,3.35,0,0,1,55.466,1.03h0a3.5,3.5,0,0,0-4.963,0h0a3.436,3.436,0,0,1-2.481,1.056h0a3.537,3.537,0,0,0-3.537,3.537h0A3.35,3.35,0,0,1,43.43,8.1h0a3.505,3.505,0,0,0,0,4.963h0a3.436,3.436,0,0,1,1.056,2.481h0a3.537,3.537,0,0,0,3.537,3.537h0A3.35,3.35,0,0,1,50.5,20.141h0a3.5,3.5,0,0,0,4.963,0h0a3.436,3.436,0,0,1,2.481-1.056h0a3.537,3.537,0,0,0,3.537-3.537h0A3.526,3.526,0,0,1,62.541,13.066Z" transform="translate(-41.635 0)"/><path class="d" d="M94.553,60.094a1.442,1.442,0,0,1-1-.422,5.594,5.594,0,0,0-3.959-1.637,1.419,1.419,0,0,1-1.425-1.425,5.594,5.594,0,0,0-1.637-3.959,1.468,1.468,0,0,1,0-2.006,5.594,5.594,0,0,0,1.637-3.959,1.419,1.419,0,0,1,1.425-1.425,5.5,5.5,0,0,0,3.959-1.637,1.4,1.4,0,0,1,2.006,0,5.594,5.594,0,0,0,3.959,1.637,1.419,1.419,0,0,1,1.425,1.425,5.5,5.5,0,0,0,1.637,3.959,1.468,1.468,0,0,1,0,2.006,5.594,5.594,0,0,0-1.637,3.959,1.419,1.419,0,0,1-1.425,1.425,5.5,5.5,0,0,0-3.959,1.637A1.443,1.443,0,0,1,94.553,60.094Z" transform="translate(-83.203 -41.062)"/><path class="e" d="M86.41,51.172a5.594,5.594,0,0,0,1.637-3.959,1.419,1.419,0,0,1,1.425-1.425,5.5,5.5,0,0,0,3.959-1.637,1.4,1.4,0,0,1,2.006,0A5.594,5.594,0,0,0,99.4,45.787a1.419,1.419,0,0,1,1.425,1.425,5.5,5.5,0,0,0,1.637,3.959,1.408,1.408,0,0,1,.37.739,1.459,1.459,0,0,0-.37-1.267,5.594,5.594,0,0,1-1.637-3.959A1.419,1.419,0,0,0,99.4,45.259a5.594,5.594,0,0,1-3.959-1.637,1.4,1.4,0,0,0-2.006,0,5.594,5.594,0,0,1-3.959,1.637,1.419,1.419,0,0,0-1.425,1.425,5.594,5.594,0,0,1-1.637,3.959,1.375,1.375,0,0,0-.37,1.267A1.109,1.109,0,0,1,86.41,51.172Z" transform="translate(-83.084 -41.062)"/><path class="c" d="M143.808,91.358l1.214,3.7c.053.106.106.158.211.158h3.907c.211,0,.317.317.158.422l-3.168,2.27c-.106.053-.106.158-.106.264l1.214,3.7a.237.237,0,0,1-.37.264l-3.168-2.27a.236.236,0,0,0-.264,0l-3.168,2.27a.237.237,0,0,1-.37-.264l1.214-3.7a.193.193,0,0,0-.106-.264l-3.168-2.27c-.211-.158-.106-.422.158-.422h3.907c.106,0,.211-.053.211-.158l1.214-3.7C143.439,91.147,143.755,91.147,143.808,91.358Z" transform="translate(-132.247 -86.686)"/></g><g transform="translate(137.663 2048)"><path class="h" d="M160.133,335.967h-8.421a.7.7,0,0,0-.7.7v6.83a.707.707,0,0,0,1.095.589l3.817-2.554,3.817,2.554a.707.707,0,0,0,1.095-.589v-6.83A.7.7,0,0,0,160.133,335.967Z" transform="translate(-146.8 -320.248)"/><path class="i" d="M260.912,336.669v6.83a.706.706,0,0,1-1.095.589L256,341.534v-5.567h4.21A.7.7,0,0,1,260.912,336.669Z" transform="translate(-246.878 -320.248)"/><path class="j" d="M70.142,0a9.122,9.122,0,1,0,9.122,9.122A9.14,9.14,0,0,0,70.142,0Z" transform="translate(-61.02)"/><path class="k" d="M265.122,9.122A9.14,9.14,0,0,1,256,18.245V0A9.14,9.14,0,0,1,265.122,9.122Z" transform="translate(-246.878)"/><path class="l" d="M147.24,79.538a.7.7,0,0,0-.575-.477l-3.032-.435-1.347-2.681a.744.744,0,0,0-1.263,0l-1.347,2.681-3.032.435a.7.7,0,0,0-.575.477.751.751,0,0,0,.2.73l2.175,2.077-.519,2.919a.717.717,0,0,0,.281.688.682.682,0,0,0,.744.056l2.709-1.389,2.709,1.389a.682.682,0,0,0,.744-.056.717.717,0,0,0,.281-.688l-.519-2.919,2.175-2.077A.75.75,0,0,0,147.24,79.538Z" transform="translate(-132.532 -72.057)"/><path class="m" d="M261.39,80.265l-2.175,2.077.519,2.919a.718.718,0,0,1-.281.688.682.682,0,0,1-.744.056L256,84.616V75.592a.7.7,0,0,1,.632.351l1.347,2.681,3.032.435a.7.7,0,0,1,.575.477A.751.751,0,0,1,261.39,80.265Z" transform="translate(-246.879 -72.055)"/></g></g></svg>