<svg xmlns="http://www.w3.org/2000/svg" xmlns:xlink="http://www.w3.org/1999/xlink" width="70.384" height="70.384" viewBox="0 0 70.384 70.384"><defs><style>.a{fill:#6bb4fe;}.b{fill:#c74c4e;}.c{fill:#de5153;}.d{fill:#fc5b5d;}.e{fill:#555c5e;}.f{filter:url(#a);}</style><filter id="a" x="0" y="0" width="70.384" height="70.384" filterUnits="userSpaceOnUse"><feOffset dy="3" input="SourceAlpha"/><feGaussianBlur stdDeviation="3" result="b"/><feFlood flood-opacity="0.161"/><feComposite operator="in" in2="b"/><feComposite in="SourceGraphic"/></filter></defs><g transform="translate(-118 -122)"><g class="f" transform="matrix(1, 0, 0, 1, 118, 122)"><circle class="a" cx="26.192" cy="26.192" r="26.192" transform="translate(9 6)"/></g><g transform="translate(135.683 139.633)"><g transform="translate(24.161 9.325)"><path class="b" d="M354.481,184.463a1.115,1.115,0,0,1-.109-1.573l3.082-3.539a1.115,1.115,0,1,1,1.682,1.464l-3.082,3.539A1.115,1.115,0,0,1,354.481,184.463Z" transform="translate(-354.098 -178.968)"/><path class="b" d="M396.1,301.878l-4.71-1.189a1.115,1.115,0,1,1,.546-2.162l4.71,1.189a1.115,1.115,0,0,1-.546,2.162Z" transform="translate(-388.06 -290.337)"/><path class="b" d="M383.715,368.928l-5.617-1.418a1.115,1.115,0,1,1,.546-2.162l5.617,1.418a1.115,1.115,0,0,1-.546,2.162Z" transform="translate(-375.675 -352.598)"/></g><g transform="translate(1.347 9.325)"><path class="c" d="M83.42,184.354l-3.082-3.539a1.115,1.115,0,0,1,1.682-1.464L85.1,182.89a1.115,1.115,0,0,1-1.682,1.464Z" transform="translate(-75.948 -178.968)"/><path class="c" d="M19.77,301.069a1.115,1.115,0,0,1,.808-1.354l4.71-1.189a1.115,1.115,0,1,1,.546,2.162l-4.71,1.189A1.115,1.115,0,0,1,19.77,301.069Z" transform="translate(-19.735 -290.336)"/><path class="c" d="M19.77,368.118a1.115,1.115,0,0,1,.808-1.354l5.617-1.418a1.115,1.115,0,0,1,.546,2.162l-5.617,1.418A1.115,1.115,0,0,1,19.77,368.118Z" transform="translate(-19.735 -352.596)"/></g><g transform="translate(0 0)"><path class="d" d="M99.284,207.414c-6.222,0-11.477-4.186-11.477-9.6s5.256-9.6,11.477-9.6,11.477,4.186,11.477,9.6S105.5,207.414,99.284,207.414Z" transform="translate(-81.816 -178.251)"/><path class="d" d="M6.578,53.856A6.587,6.587,0,0,1,1.927,42.627a1.115,1.115,0,0,1,1.577,0L6.578,45.7l3.074-3.074a1.115,1.115,0,0,1,1.577,0A6.586,6.586,0,0,1,6.578,53.856Z" transform="translate(0 -42.301)"/></g><g transform="translate(17.468 0)"><path class="c" d="M256,188.207h0v19.207h0c6.221,0,11.477-4.185,11.477-9.6S262.223,188.207,256,188.207Z" transform="translate(-256.001 -178.251)"/><path class="c" d="M325.776,53.856a6.587,6.587,0,0,1-4.651-11.229,1.115,1.115,0,0,1,1.577,0l3.074,3.074,3.074-3.074a1.115,1.115,0,0,1,1.577,0A6.586,6.586,0,0,1,325.776,53.856Z" transform="translate(-314.886 -42.301)"/></g><g transform="translate(12.63 12.272)"><ellipse class="e" cx="1.475" cy="1.475" rx="1.475" ry="1.475"/><ellipse class="e" cx="1.475" cy="1.475" rx="1.475" ry="1.475" transform="translate(6.725)"/></g></g></g></svg>